<svg width="60" height="16" viewBox="0 0 60 16" fill="none" xmlns="http://www.w3.org/2000/svg">
<g filter="url(#filter0_d_2_80)">
<path d="M53.0078 15.82C52.1278 15.82 51.3211 15.6533 50.5878 15.32C49.8678 14.9733 49.2944 14.4667 48.8678 13.8C48.4411 13.12 48.2278 12.2867 48.2278 11.3C48.2278 10.6733 48.3144 10.0667 48.4878 9.48C48.6744 8.88 48.9411 8.32667 49.2878 7.82C49.6344 7.3 50.0544 6.84667 50.5478 6.46C51.0544 6.07333 51.6211 5.77333 52.2478 5.56C52.8745 5.33333 53.5611 5.22 54.3078 5.22C55.1744 5.22 55.9678 5.38 56.6878 5.7C57.4078 6.02 57.9811 6.5 58.4078 7.14C58.8345 7.76667 59.0478 8.56 59.0478 9.52C59.0478 9.93333 59.0011 10.3067 58.9078 10.64C58.8278 10.9733 58.7145 11.2333 58.5678 11.42H49.9078L50.3278 9.44H56.6278L56.0478 10.04C56.1278 9.73334 56.1611 9.42667 56.1478 9.12C56.1344 8.8 56.0545 8.51333 55.9078 8.26C55.7744 7.99333 55.5678 7.78 55.2878 7.62C55.0078 7.46 54.6411 7.38 54.1878 7.38C53.7211 7.38 53.3144 7.46667 52.9678 7.64C52.6344 7.8 52.3478 8.02 52.1078 8.3C51.8811 8.58 51.6944 8.89333 51.5478 9.24C51.4011 9.58667 51.2944 9.94 51.2278 10.3C51.1744 10.66 51.1478 11 51.1478 11.32C51.1478 12.1733 51.3411 12.78 51.7278 13.14C52.1144 13.4867 52.6344 13.66 53.2878 13.66C53.8344 13.66 54.2811 13.5667 54.6278 13.38C54.9744 13.18 55.2411 12.9333 55.4278 12.64H58.2078C57.7544 13.64 57.0611 14.42 56.1278 14.98C55.2078 15.54 54.1678 15.82 53.0078 15.82Z" fill="url(#paint0_linear_2_80)"/>
</g>
<g filter="url(#filter1_d_2_80)">
<path d="M37.2234 15.62L40.5434 1.22H43.5434L40.2234 15.62H37.2234ZM44.0634 15.62L40.7434 10.32L45.7234 5.42H49.4834L43.6834 10.78L43.4434 9.84L47.3234 15.62H44.0634Z" fill="url(#paint1_linear_2_80)"/>
</g>
<g filter="url(#filter2_d_2_80)">
<path d="M32.2566 15.62C32.2433 15.3933 32.2499 15.12 32.2766 14.8C32.3166 14.48 32.3833 14.1 32.4766 13.66H32.4366L33.5166 8.86C33.5966 8.52667 33.5766 8.25334 33.4566 8.04C33.3499 7.81333 33.1766 7.64667 32.9366 7.54C32.6966 7.43333 32.4099 7.38 32.0766 7.38C31.5433 7.38 31.1099 7.48667 30.7766 7.7C30.4566 7.9 30.2566 8.13334 30.1766 8.4H27.3566C27.6633 7.45334 28.2499 6.68667 29.1166 6.1C29.9833 5.51333 31.0499 5.22 32.3166 5.22C33.2899 5.22 34.1166 5.38 34.7966 5.7C35.4899 6.00667 35.9766 6.48 36.2566 7.12C36.5499 7.74667 36.5833 8.54 36.3566 9.5L35.3766 13.78C35.3233 14.0467 35.2766 14.3733 35.2366 14.76C35.1966 15.1333 35.1899 15.42 35.2166 15.62H32.2566ZM28.9966 15.82C28.0899 15.82 27.3633 15.5867 26.8166 15.12C26.2833 14.6533 26.0166 14.0533 26.0166 13.32C26.0166 12.52 26.2233 11.86 26.6366 11.34C27.0633 10.82 27.6499 10.4133 28.3966 10.12C29.1566 9.82667 30.0433 9.62667 31.0566 9.52L33.8966 9.22L33.4966 10.96L30.9766 11.28C30.4033 11.3467 29.9366 11.5067 29.5766 11.76C29.2166 12 29.0366 12.34 29.0366 12.78C29.0366 13.06 29.1499 13.2733 29.3766 13.42C29.6033 13.5533 29.9099 13.62 30.2966 13.62C30.9633 13.62 31.5299 13.44 31.9966 13.08C32.4633 12.7067 32.7433 12.3067 32.8366 11.88L32.7366 13.58C32.3366 14.2333 31.8366 14.7733 31.2366 15.2C30.6499 15.6133 29.9033 15.82 28.9966 15.82Z" fill="url(#paint2_linear_2_80)"/>
</g>
<g filter="url(#filter3_d_2_80)">
<path d="M13.7278 15.62L16.0678 5.42H19.0078L18.4678 7.82H18.5278L16.7278 15.62H13.7278ZM20.8078 15.62L22.1878 9.56C22.3345 8.89333 22.2945 8.4 22.0678 8.08C21.8545 7.74667 21.4545 7.58 20.8678 7.58C20.1611 7.58 19.5478 7.80667 19.0278 8.26C18.5211 8.7 18.1744 9.33333 17.9878 10.16L18.2878 7.7C18.6745 6.95334 19.2478 6.35333 20.0078 5.9C20.7678 5.44667 21.5611 5.22 22.3878 5.22C23.5345 5.22 24.3678 5.59333 24.8878 6.34C25.4211 7.08667 25.5478 8.07333 25.2678 9.3L23.8078 15.62H20.8078Z" fill="url(#paint3_linear_2_80)"/>
</g>
<g filter="url(#filter4_d_2_80)">
<path d="M7.22083 15.8C6.31417 15.8 5.47417 15.68 4.70083 15.44C3.94083 15.2 3.28083 14.8667 2.72083 14.44C2.17417 14.0133 1.7475 13.5133 1.44083 12.94C1.13417 12.3533 0.9875 11.7133 1.00083 11.02H3.96083C3.96083 11.38 4.04083 11.7133 4.20083 12.02C4.36083 12.3267 4.59417 12.5933 4.90083 12.82C5.2075 13.0467 5.57417 13.22 6.00083 13.34C6.4275 13.46 6.89417 13.52 7.40083 13.52C8.2275 13.52 8.86083 13.3667 9.30083 13.06C9.75417 12.7533 9.98083 12.32 9.98083 11.76C9.98083 11.3733 9.86083 11.0467 9.62083 10.78C9.38083 10.5133 9.00083 10.28 8.48083 10.08L6.00083 9.12C4.9475 8.70667 4.17417 8.21333 3.68083 7.64C3.1875 7.05333 2.94083 6.33333 2.94083 5.48C2.94083 4.57333 3.17417 3.78667 3.64083 3.12C4.1075 2.44 4.76083 1.92 5.60083 1.56C6.44083 1.18667 7.42083 1 8.54083 1C9.35417 1 10.0942 1.10667 10.7608 1.32C11.4275 1.52 12.0008 1.81333 12.4808 2.2C12.9608 2.58667 13.3275 3.04667 13.5808 3.58C13.8475 4.11333 13.9742 4.7 13.9608 5.34H11.0008C11.0142 4.92667 10.9075 4.56667 10.6808 4.26C10.4542 3.95333 10.1342 3.71333 9.72083 3.54C9.3075 3.36667 8.82083 3.28 8.26083 3.28C7.78083 3.28 7.36083 3.34 7.00083 3.46C6.65417 3.58 6.38083 3.76 6.18083 4C5.99417 4.22667 5.90083 4.51333 5.90083 4.86C5.90083 5.19333 6.01417 5.48667 6.24083 5.74C6.48083 5.99333 6.86083 6.22 7.38083 6.42L9.66083 7.32C10.8475 7.78667 11.6942 8.31333 12.2008 8.9C12.7075 9.47333 12.9608 10.2133 12.9608 11.12C12.9608 12.08 12.7208 12.9133 12.2408 13.62C11.7742 14.3133 11.1142 14.8533 10.2608 15.24C9.4075 15.6133 8.39417 15.8 7.22083 15.8Z" fill="url(#paint4_linear_2_80)"/>
</g>
<defs>
<filter id="filter0_d_2_80" x="47.2278" y="4.22" width="11.8201" height="11.6" filterUnits="userSpaceOnUse" color-interpolation-filters="sRGB">
<feFlood flood-opacity="0" result="BackgroundImageFix"/>
<feColorMatrix in="SourceAlpha" type="matrix" values="0 0 0 0 0 0 0 0 0 0 0 0 0 0 0 0 0 0 127 0" result="hardAlpha"/>
<feOffset dx="-1" dy="-1"/>
<feComposite in2="hardAlpha" operator="out"/>
<feColorMatrix type="matrix" values="0 0 0 0 0 0 0 0 0 0 0 0 0 0 0 0 0 0 1 0"/>
<feBlend mode="normal" in2="BackgroundImageFix" result="effect1_dropShadow_2_80"/>
<feBlend mode="normal" in="SourceGraphic" in2="effect1_dropShadow_2_80" result="shape"/>
</filter>
<filter id="filter1_d_2_80" x="36.2234" y="0.220001" width="13.26" height="15.4" filterUnits="userSpaceOnUse" color-interpolation-filters="sRGB">
<feFlood flood-opacity="0" result="BackgroundImageFix"/>
<feColorMatrix in="SourceAlpha" type="matrix" values="0 0 0 0 0 0 0 0 0 0 0 0 0 0 0 0 0 0 127 0" result="hardAlpha"/>
<feOffset dx="-1" dy="-1"/>
<feComposite in2="hardAlpha" operator="out"/>
<feColorMatrix type="matrix" values="0 0 0 0 0 0 0 0 0 0 0 0 0 0 0 0 0 0 1 0"/>
<feBlend mode="normal" in2="BackgroundImageFix" result="effect1_dropShadow_2_80"/>
<feBlend mode="normal" in="SourceGraphic" in2="effect1_dropShadow_2_80" result="shape"/>
</filter>
<filter id="filter2_d_2_80" x="25.0166" y="4.22" width="11.4883" height="11.6" filterUnits="userSpaceOnUse" color-interpolation-filters="sRGB">
<feFlood flood-opacity="0" result="BackgroundImageFix"/>
<feColorMatrix in="SourceAlpha" type="matrix" values="0 0 0 0 0 0 0 0 0 0 0 0 0 0 0 0 0 0 127 0" result="hardAlpha"/>
<feOffset dx="-1" dy="-1"/>
<feComposite in2="hardAlpha" operator="out"/>
<feColorMatrix type="matrix" values="0 0 0 0 0 0 0 0 0 0 0 0 0 0 0 0 0 0 1 0"/>
<feBlend mode="normal" in2="BackgroundImageFix" result="effect1_dropShadow_2_80"/>
<feBlend mode="normal" in="SourceGraphic" in2="effect1_dropShadow_2_80" result="shape"/>
</filter>
<filter id="filter3_d_2_80" x="12.7278" y="4.22" width="12.6846" height="11.4" filterUnits="userSpaceOnUse" color-interpolation-filters="sRGB">
<feFlood flood-opacity="0" result="BackgroundImageFix"/>
<feColorMatrix in="SourceAlpha" type="matrix" values="0 0 0 0 0 0 0 0 0 0 0 0 0 0 0 0 0 0 127 0" result="hardAlpha"/>
<feOffset dx="-1" dy="-1"/>
<feComposite in2="hardAlpha" operator="out"/>
<feColorMatrix type="matrix" values="0 0 0 0 0 0 0 0 0 0 0 0 0 0 0 0 0 0 1 0"/>
<feBlend mode="normal" in2="BackgroundImageFix" result="effect1_dropShadow_2_80"/>
<feBlend mode="normal" in="SourceGraphic" in2="effect1_dropShadow_2_80" result="shape"/>
</filter>
<filter id="filter4_d_2_80" x="0" y="0" width="13.9617" height="15.8" filterUnits="userSpaceOnUse" color-interpolation-filters="sRGB">
<feFlood flood-opacity="0" result="BackgroundImageFix"/>
<feColorMatrix in="SourceAlpha" type="matrix" values="0 0 0 0 0 0 0 0 0 0 0 0 0 0 0 0 0 0 127 0" result="hardAlpha"/>
<feOffset dx="-1" dy="-1"/>
<feComposite in2="hardAlpha" operator="out"/>
<feColorMatrix type="matrix" values="0 0 0 0 0 0 0 0 0 0 0 0 0 0 0 0 0 0 1 0"/>
<feBlend mode="normal" in2="BackgroundImageFix" result="effect1_dropShadow_2_80"/>
<feBlend mode="normal" in="SourceGraphic" in2="effect1_dropShadow_2_80" result="shape"/>
</filter>
<linearGradient id="paint0_linear_2_80" x1="36.1407" y1="18.62" x2="36.1407" y2="0.120003" gradientUnits="userSpaceOnUse">
<stop stop-color="white"/>
<stop offset="0.644231" stop-color="#BDBDBD"/>
<stop offset="0.826923" stop-color="white"/>
<stop offset="1" stop-color="#999999"/>
</linearGradient>
<linearGradient id="paint1_linear_2_80" x1="36.1409" y1="18.62" x2="36.1409" y2="0.120003" gradientUnits="userSpaceOnUse">
<stop stop-color="white"/>
<stop offset="0.644231" stop-color="#BDBDBD"/>
<stop offset="0.826923" stop-color="white"/>
<stop offset="1" stop-color="#999999"/>
</linearGradient>
<linearGradient id="paint2_linear_2_80" x1="36.1408" y1="18.62" x2="36.1408" y2="0.120002" gradientUnits="userSpaceOnUse">
<stop stop-color="white"/>
<stop offset="0.644231" stop-color="#BDBDBD"/>
<stop offset="0.826923" stop-color="white"/>
<stop offset="1" stop-color="#999999"/>
</linearGradient>
<linearGradient id="paint3_linear_2_80" x1="36.1409" y1="18.62" x2="36.1409" y2="0.120003" gradientUnits="userSpaceOnUse">
<stop stop-color="white"/>
<stop offset="0.644231" stop-color="#BDBDBD"/>
<stop offset="0.826923" stop-color="white"/>
<stop offset="1" stop-color="#999999"/>
</linearGradient>
<linearGradient id="paint4_linear_2_80" x1="36.1408" y1="18.62" x2="36.1408" y2="0.119999" gradientUnits="userSpaceOnUse">
<stop stop-color="white"/>
<stop offset="0.644231" stop-color="#BDBDBD"/>
<stop offset="0.826923" stop-color="white"/>
<stop offset="1" stop-color="#999999"/>
</linearGradient>
</defs>
</svg>
